<svg width="104" height="65" viewBox="0 0 104 65" fill="none" xmlns="http://www.w3.org/2000/svg">
<path d="M8 4C8 6.20914 6.20914 8 4 8C1.79086 8 0 6.20914 0 4C0 1.79086 1.79086 0 4 0C6.20914 0 8 1.79086 8 4Z" fill="#CAC9CB"/>
<path d="M24 4C24 6.20914 22.2091 8 20 8C17.7909 8 16 6.20914 16 4C16 1.79086 17.7909 0 20 0C22.2091 0 24 1.79086 24 4Z" fill="#CAC9CB"/>
<path d="M40 4C40 6.20914 38.2091 8 36 8C33.7909 8 32 6.20914 32 4C32 1.79086 33.7909 0 36 0C38.2091 0 40 1.79086 40 4Z" fill="#CAC9CB"/>
<path d="M56 4C56 6.20914 54.2091 8 52 8C49.7909 8 48 6.20914 48 4C48 1.79086 49.7909 0 52 0C54.2091 0 56 1.79086 56 4Z" fill="#CAC9CB"/>
<path d="M72 4C72 6.20914 70.2091 8 68 8C65.7909 8 64 6.20914 64 4C64 1.79086 65.7909 0 68 0C70.2091 0 72 1.79086 72 4Z" fill="#CAC9CB"/>
<path d="M88 4C88 6.20914 86.2091 8 84 8C81.7909 8 80 6.20914 80 4C80 1.79086 81.7909 0 84 0C86.2091 0 88 1.79086 88 4Z" fill="#CAC9CB"/>
<path d="M104 4C104 6.20914 102.209 8 100 8C97.7909 8 96 6.20914 96 4C96 1.79086 97.7909 0 100 0C102.209 0 104 1.79086 104 4Z" fill="#CAC9CB"/>
<path d="M8 18C8 20.2091 6.20914 22 4 22C1.79086 22 0 20.2091 0 18C0 15.7909 1.79086 14 4 14C6.20914 14 8 15.7909 8 18Z" fill="#CAC9CB"/>
<path d="M24 18C24 20.2091 22.2091 22 20 22C17.7909 22 16 20.2091 16 18C16 15.7909 17.7909 14 20 14C22.2091 14 24 15.7909 24 18Z" fill="#CAC9CB"/>
<path d="M40 18C40 20.2091 38.2091 22 36 22C33.7909 22 32 20.2091 32 18C32 15.7909 33.7909 14 36 14C38.2091 14 40 15.7909 40 18Z" fill="#CAC9CB"/>
<path d="M56 18C56 20.2091 54.2091 22 52 22C49.7909 22 48 20.2091 48 18C48 15.7909 49.7909 14 52 14C54.2091 14 56 15.7909 56 18Z" fill="#CAC9CB"/>
<path d="M72 18C72 20.2091 70.2091 22 68 22C65.7909 22 64 20.2091 64 18C64 15.7909 65.7909 14 68 14C70.2091 14 72 15.7909 72 18Z" fill="#CAC9CB"/>
<path d="M88 18C88 20.2091 86.2091 22 84 22C81.7909 22 80 20.2091 80 18C80 15.7909 81.7909 14 84 14C86.2091 14 88 15.7909 88 18Z" fill="#CAC9CB"/>
<path d="M104 18C104 20.2091 102.209 22 100 22C97.7909 22 96 20.2091 96 18C96 15.7909 97.7909 14 100 14C102.209 14 104 15.7909 104 18Z" fill="#CAC9CB"/>
<path d="M8 32C8 34.2091 6.20914 36 4 36C1.79086 36 0 34.2091 0 32C0 29.7909 1.79086 28 4 28C6.20914 28 8 29.7909 8 32Z" fill="#CAC9CB"/>
<path d="M24 32C24 34.2091 22.2091 36 20 36C17.7909 36 16 34.2091 16 32C16 29.7909 17.7909 28 20 28C22.2091 28 24 29.7909 24 32Z" fill="#CAC9CB"/>
<path d="M40 32C40 34.2091 38.2091 36 36 36C33.7909 36 32 34.2091 32 32C32 29.7909 33.7909 28 36 28C38.2091 28 40 29.7909 40 32Z" fill="#CAC9CB"/>
<path d="M56 32C56 34.2091 54.2091 36 52 36C49.7909 36 48 34.2091 48 32C48 29.7909 49.7909 28 52 28C54.2091 28 56 29.7909 56 32Z" fill="#CAC9CB"/>
<path d="M72 32C72 34.2091 70.2091 36 68 36C65.7909 36 64 34.2091 64 32C64 29.7909 65.7909 28 68 28C70.2091 28 72 29.7909 72 32Z" fill="#CAC9CB"/>
<path d="M88 32C88 34.2091 86.2091 36 84 36C81.7909 36 80 34.2091 80 32C80 29.7909 81.7909 28 84 28C86.2091 28 88 29.7909 88 32Z" fill="#CAC9CB"/>
<path d="M104 32C104 34.2091 102.209 36 100 36C97.7909 36 96 34.2091 96 32C96 29.7909 97.7909 28 100 28C102.209 28 104 29.7909 104 32Z" fill="#CAC9CB"/>
<path d="M8 46C8 48.2091 6.20914 50 4 50C1.79086 50 0 48.2091 0 46C0 43.7909 1.79086 42 4 42C6.20914 42 8 43.7909 8 46Z" fill="#CAC9CB"/>
<path d="M24 46C24 48.2091 22.2091 50 20 50C17.7909 50 16 48.2091 16 46C16 43.7909 17.7909 42 20 42C22.2091 42 24 43.7909 24 46Z" fill="#CAC9CB"/>
<path d="M40 46C40 48.2091 38.2091 50 36 50C33.7909 50 32 48.2091 32 46C32 43.7909 33.7909 42 36 42C38.2091 42 40 43.7909 40 46Z" fill="#CAC9CB"/>
<path d="M56 46C56 48.2091 54.2091 50 52 50C49.7909 50 48 48.2091 48 46C48 43.7909 49.7909 42 52 42C54.2091 42 56 43.7909 56 46Z" fill="#CAC9CB"/>
<path d="M72 46C72 48.2091 70.2091 50 68 50C65.7909 50 64 48.2091 64 46C64 43.7909 65.7909 42 68 42C70.2091 42 72 43.7909 72 46Z" fill="#CAC9CB"/>
<path d="M88 46C88 48.2091 86.2091 50 84 50C81.7909 50 80 48.2091 80 46C80 43.7909 81.7909 42 84 42C86.2091 42 88 43.7909 88 46Z" fill="#CAC9CB"/>
<path d="M104 46C104 48.2091 102.209 50 100 50C97.7909 50 96 48.2091 96 46C96 43.7909 97.7909 42 100 42C102.209 42 104 43.7909 104 46Z" fill="#CAC9CB"/>
<path d="M8 61C8 63.2091 6.20914 65 4 65C1.79086 65 0 63.2091 0 61C0 58.7909 1.79086 57 4 57C6.20914 57 8 58.7909 8 61Z" fill="#CAC9CB"/>
<path d="M24 61C24 63.2091 22.2091 65 20 65C17.7909 65 16 63.2091 16 61C16 58.7909 17.7909 57 20 57C22.2091 57 24 58.7909 24 61Z" fill="#CAC9CB"/>
<path d="M40 61C40 63.2091 38.2091 65 36 65C33.7909 65 32 63.2091 32 61C32 58.7909 33.7909 57 36 57C38.2091 57 40 58.7909 40 61Z" fill="#CAC9CB"/>
<path d="M56 61C56 63.2091 54.2091 65 52 65C49.7909 65 48 63.2091 48 61C48 58.7909 49.7909 57 52 57C54.2091 57 56 58.7909 56 61Z" fill="#CAC9CB"/>
<path d="M72 61C72 63.2091 70.2091 65 68 65C65.7909 65 64 63.2091 64 61C64 58.7909 65.7909 57 68 57C70.2091 57 72 58.7909 72 61Z" fill="#CAC9CB"/>
<path d="M88 61C88 63.2091 86.2091 65 84 65C81.7909 65 80 63.2091 80 61C80 58.7909 81.7909 57 84 57C86.2091 57 88 58.7909 88 61Z" fill="#CAC9CB"/>
<path d="M104 61C104 63.2091 102.209 65 100 65C97.7909 65 96 63.2091 96 61C96 58.7909 97.7909 57 100 57C102.209 57 104 58.7909 104 61Z" fill="#CAC9CB"/>
</svg>
