<svg width="104" height="36" viewBox="0 0 104 36" fill="none" xmlns="http://www.w3.org/2000/svg">
<path d="M56 32C56 34.2091 54.2091 36 52 36C49.7909 36 48 34.2091 48 32C48 29.7909 49.7909 28 52 28C54.2091 28 56 29.7909 56 32Z" fill="#CAC9CB"/>
<path d="M40 32C40 34.2091 38.2091 36 36 36C33.7909 36 32 34.2091 32 32C32 29.7909 33.7909 28 36 28C38.2091 28 40 29.7909 40 32Z" fill="#CAC9CB"/>
<path d="M24 32C24 34.2091 22.2091 36 20 36C17.7909 36 16 34.2091 16 32C16 29.7909 17.7909 28 20 28C22.2091 28 24 29.7909 24 32Z" fill="#CAC9CB"/>
<path d="M8 32C8 34.2091 6.20914 36 4 36C1.79086 36 0 34.2091 0 32C0 29.7909 1.79086 28 4 28C6.20914 28 8 29.7909 8 32Z" fill="#CAC9CB"/>
<path d="M56 18C56 20.2091 54.2091 22 52 22C49.7909 22 48 20.2091 48 18C48 15.7909 49.7909 14 52 14C54.2091 14 56 15.7909 56 18Z" fill="#CAC9CB"/>
<path d="M40 18C40 20.2091 38.2091 22 36 22C33.7909 22 32 20.2091 32 18C32 15.7909 33.7909 14 36 14C38.2091 14 40 15.7909 40 18Z" fill="#CAC9CB"/>
<path d="M24 18C24 20.2091 22.2091 22 20 22C17.7909 22 16 20.2091 16 18C16 15.7909 17.7909 14 20 14C22.2091 14 24 15.7909 24 18Z" fill="#CAC9CB"/>
<path d="M8 18C8 20.2091 6.20914 22 4 22C1.79086 22 0 20.2091 0 18C0 15.7909 1.79086 14 4 14C6.20914 14 8 15.7909 8 18Z" fill="#CAC9CB"/>
<path d="M104 4C104 6.20914 102.209 8 100 8C97.7909 8 96 6.20914 96 4C96 1.79086 97.7909 0 100 0C102.209 0 104 1.79086 104 4Z" fill="#CAC9CB"/>
<path d="M88 4C88 6.20914 86.2091 8 84 8C81.7909 8 80 6.20914 80 4C80 1.79086 81.7909 0 84 0C86.2091 0 88 1.79086 88 4Z" fill="#CAC9CB"/>
<path d="M72 4C72 6.20914 70.2091 8 68 8C65.7909 8 64 6.20914 64 4C64 1.79086 65.7909 0 68 0C70.2091 0 72 1.79086 72 4Z" fill="#CAC9CB"/>
<path d="M56 4C56 6.20914 54.2091 8 52 8C49.7909 8 48 6.20914 48 4C48 1.79086 49.7909 0 52 0C54.2091 0 56 1.79086 56 4Z" fill="#CAC9CB"/>
<path d="M40 4C40 6.20914 38.2091 8 36 8C33.7909 8 32 6.20914 32 4C32 1.79086 33.7909 0 36 0C38.2091 0 40 1.79086 40 4Z" fill="#CAC9CB"/>
<path d="M24 4C24 6.20914 22.2091 8 20 8C17.7909 8 16 6.20914 16 4C16 1.79086 17.7909 0 20 0C22.2091 0 24 1.79086 24 4Z" fill="#CAC9CB"/>
<path d="M8 4C8 6.20914 6.20914 8 4 8C1.79086 8 0 6.20914 0 4C0 1.79086 1.79086 0 4 0C6.20914 0 8 1.79086 8 4Z" fill="#CAC9CB"/>
</svg>
